<?xml version="1.0" encoding="utf-8"?>
<!-- Generator: Adobe Illustrator 19.2.1, SVG Export Plug-In . SVG Version: 6.00 Build 0)  -->
<svg version="1.1" id="layer" xmlns="http://www.w3.org/2000/svg" xmlns:xlink="http://www.w3.org/1999/xlink" x="0px" y="0px"
	 viewBox="0 0 652 652" style="enable-background:new 0 0 652 652;" xml:space="preserve">
<style type="text/css">
	.st0{fill:#00205B;}
	.st1{fill:#FFFFFF;}
</style>
<path class="st0" d="M429.6,538.9v9.3h-2.3v-9.3h-2.7v-2.3h7.7v2.3H429.6L429.6,538.9z M442.3,548.2v-6.9l-2,4.3h-2.1l-2-4.3v6.9
	H434v-11.7h2.3l3,6.2l3-6.2h2.3v11.7L442.3,548.2L442.3,548.2z"/>
<path class="st0" d="M544.6,267c0.2-0.4,0.1-0.9-0.3-1.1c0,0-0.1,0-0.1-0.1c-6.7-2.5-13.1-4.3-19.5-5.2c-0.4-0.1-0.7-0.4-0.7-0.9
	c0-0.1,0-0.2,0.1-0.2c5.3-10.6,8.7-22.7,11.2-35.9c0.1-0.6-0.4-1.1-1-0.9c-11.8,3.1-25.4,8.6-36.7,14c-0.4,0.2-0.8,0-1-0.3
	c0-0.1,0-0.1-0.1-0.2c-1.7-7.3-3.6-15.5-7.7-22.7c-0.2-0.4-0.7-0.5-1.1-0.3c0,0,0,0-0.1,0c-11.9,8.6-22.6,18.1-31.9,28.6
	c-0.3,0.3-0.8,0.3-1.1,0.1c-0.1-0.1-0.1-0.1-0.2-0.2c-2.4-4-5.5-7.5-9.6-10.4c-0.3-0.2-0.8-0.2-1,0.1c-15.3,19-34.6,40.5-59.5,58.3
	c-0.5,0.4-1.2-0.1-1-0.7c5.7-18.5,14.2-36.1,22.5-52.3c0.2-0.4,0-0.8-0.3-1c-0.1,0-0.1-0.1-0.2-0.1c-3.5-0.8-8.1-1.2-12.6-1.5
	c-0.4,0-0.7-0.4-0.7-0.8c0-0.1,0.1-0.3,0.1-0.4c10.5-15.6,18.5-34.5,23.6-51.5c0.1-0.4-0.1-0.8-0.5-0.9c-0.1,0-0.2,0-0.2,0
	c-8.8,0.4-19.4,2.4-28.1,5.4c-0.4,0.1-0.8-0.1-0.9-0.4c0-0.1-0.1-0.3,0-0.4c2.6-14.7,1.4-31.2-1.4-46.5c-0.1-0.4-0.5-0.7-0.9-0.6
	c0,0-0.1,0-0.1,0c-6.2,2.3-13.3,5.9-19.7,9.8c-0.4,0.2-0.8,0.1-1-0.2c-0.1-0.1-0.1-0.3-0.1-0.5c1-13.8-0.6-29.1-3.5-41.4
	c-0.1-0.4-0.5-0.6-0.9-0.5c0,0,0,0-0.1,0c-4.5,1.6-9.8,4.3-14.9,7.4c-0.4,0.2-0.8,0.1-1-0.3c0,0-0.1-0.1-0.1-0.2
	c-4.8-13.9-12.4-27.5-20.6-40.9c-0.2-0.4-0.7-0.5-1.1-0.3c-0.1,0.1-0.2,0.2-0.3,0.3c-8.2,13.5-15.9,27-20.6,40.9
	c-0.1,0.4-0.6,0.6-1,0.5c-0.1,0-0.1,0-0.2-0.1c-5.1-3-10.4-5.8-14.9-7.4c-0.4-0.1-0.8,0.1-0.9,0.5c0,0,0,0,0,0.1
	c-3,12.3-4.5,27.6-3.5,41.4c0,0.4-0.3,0.8-0.7,0.8c-0.2,0-0.3,0-0.5-0.1c-6.5-3.9-13.5-7.5-19.7-9.8c-0.4-0.1-0.8,0.1-1,0.5
	c0,0,0,0.1,0,0.1c-2.8,15.3-4,31.8-1.4,46.5c0.1,0.4-0.2,0.8-0.6,0.8c-0.1,0-0.3,0-0.4,0c-8.8-3-19.4-5-28.1-5.4
	c-0.4,0-0.8,0.3-0.8,0.7c0,0.1,0,0.2,0,0.2c5.1,17,13.1,35.9,23.6,51.5c0.2,0.3,0.1,0.8-0.2,1c-0.1,0.1-0.2,0.1-0.4,0.1
	c-4.4,0.2-9.1,0.7-12.6,1.5c-0.4,0.1-0.7,0.5-0.6,0.9c0,0.1,0,0.1,0.1,0.2c8.3,16.2,16.8,33.8,22.5,52.4c0.2,0.6-0.5,1.1-1,0.7
	c-22.1-15.4-43.2-38-59.6-58.4c-0.3-0.3-0.7-0.4-1-0.1c-4.1,3-7.2,6.5-9.6,10.4c-0.2,0.4-0.7,0.5-1,0.3c-0.1,0-0.1-0.1-0.2-0.2
	c-9.3-10.4-20-19.9-31.9-28.6c-0.4-0.3-0.9-0.2-1.1,0.2c0,0,0,0,0,0.1c-4,7.1-6,15.4-7.7,22.7c-0.1,0.4-0.5,0.6-0.9,0.6
	c-0.1,0-0.1,0-0.2-0.1c-11.3-5.4-24.8-11-36.7-14c-0.6-0.1-1.1,0.4-1,0.9c2.5,13.2,6,25.3,11.2,35.9c0.2,0.4,0,0.8-0.3,1
	c-0.1,0-0.2,0.1-0.2,0.1c-6.4,0.9-12.8,2.7-19.5,5.2c-0.4,0.2-0.6,0.6-0.5,1c0,0,0,0.1,0.1,0.1c7.9,13.6,17.1,24.9,27.6,33.6
	c0.3,0.3,0.4,0.7,0.1,1.1c-0.1,0.1-0.1,0.1-0.2,0.2c-4.2,2.5-8.1,5.5-11.6,8.9c-0.3,0.3-0.3,0.8,0,1.1c0,0,0,0,0,0
	c13.3,13.1,28,24.9,43.6,35.1c0.4,0.2,0.5,0.7,0.2,1.1c0,0.1-0.1,0.1-0.2,0.2c-5.8,4.5-10.9,9.2-15.3,14.4c-0.3,0.3-0.2,0.8,0.1,1.1
	c11.4,10.1,24.5,18.3,39.7,24.5c0.4,0.2,0.6,0.6,0.4,1c-0.1,0.1-0.1,0.2-0.3,0.3c-5.4,4.1-9.8,8.6-13.8,13.4
	c-0.3,0.3-0.2,0.8,0.1,1.1c0,0,0.1,0.1,0.1,0.1c10.9,5.6,24.1,9.2,37.7,11.7c0.6,0.1,0.7,1,0.1,1.2c-17.5,5.4-33.5,12.4-48.9,20.9
	c-0.4,0.2-0.5,0.7-0.3,1.1c0.1,0.1,0.1,0.2,0.2,0.2c11.3,8.4,22.7,15.7,36.1,20.9c0.4,0.2,0.6,0.6,0.4,1c0,0.1-0.1,0.2-0.2,0.3
	c-18.3,14.9-33.2,32-46.2,50.6c-0.4,0.6,0.1,1.3,0.8,1.2c18.6-2.4,35.9-5.3,50.8-9.4c0.4-0.1,0.8,0.1,0.9,0.5c0.1,0.2,0,0.4-0.1,0.5
	c-3.2,6.4-6.1,13.2-8.7,20.3c-0.2,0.5,0.3,1.1,0.8,1.1c16.8-1.8,32-3.9,44.2-6.7c0.7-0.2,1.2,0.6,0.8,1.2
	c-5.1,7.8-8.8,16.3-11.7,25.6c-0.2,0.6,0.3,1.1,0.9,1c29.4-5.6,56.2-14,79.9-25.4c0.6-0.3,1.4,0.1,1.4,0.8
	c1.4,21.1,9.4,35.8,20.4,47.5c0.4,0.4,1.1,0.5,1.5,0.1l15.4-14.2c0.5-0.4,0.5-1.1,0.1-1.6c-3-3.5-17-19.3-14.6-31.4
	c0.3-1.4,1.9-2.2,3.2-1.6c17.7,8,54.4,20.3,83.3,25.8c0.6,0.1,1-0.4,0.9-1c-2.9-9.3-6.6-17.8-11.7-25.7c-0.4-0.6,0.1-1.3,0.8-1.2
	c12.2,2.8,27.4,4.9,44.2,6.7c0.6,0.1,1-0.5,0.8-1.1c-2.6-7.1-5.5-13.9-8.7-20.3c-0.2-0.4,0-0.8,0.3-1c0.2-0.1,0.4-0.1,0.5-0.1
	c14.9,4.1,32.2,7,50.8,9.4c0.7,0.1,1.1-0.7,0.8-1.2c-13-18.6-28-35.8-46.2-50.6c-0.3-0.3-0.4-0.8-0.1-1.1c0.1-0.1,0.2-0.2,0.3-0.2
	c13.4-5.2,24.8-12.5,36.1-20.9c0.3-0.3,0.4-0.8,0.2-1.1c-0.1-0.1-0.1-0.2-0.2-0.2c-15.4-8.6-31.4-15.5-48.9-20.9
	c-0.6-0.2-0.6-1,0.1-1.2c13.7-2.5,26.9-6.1,37.7-11.7c0.4-0.2,0.5-0.7,0.3-1.1c0,0-0.1-0.1-0.1-0.1c-4-4.9-8.4-9.4-13.8-13.4
	c-0.3-0.3-0.4-0.7-0.2-1.1c0.1-0.1,0.2-0.2,0.3-0.3c15.2-6.2,28.3-14.4,39.7-24.5c0.3-0.3,0.4-0.8,0.1-1.1
	c-4.4-5.3-9.5-9.9-15.3-14.4c-0.3-0.3-0.4-0.8-0.1-1.1c0.1-0.1,0.1-0.1,0.2-0.2c15.7-10.2,30.3-22,43.6-35.1c0.3-0.3,0.3-0.8,0-1.1
	c-3.5-3.4-7.4-6.4-11.6-8.9c-0.4-0.2-0.5-0.7-0.3-1c0-0.1,0.1-0.1,0.2-0.2C527.5,291.8,536.7,280.6,544.6,267L544.6,267z"/>
<path class="st1" d="M318.1,267.7c0.1,0.1,0.2,0.2,0.2,0.4c0.1,5.9,0.2,11.2,0.4,16.5c0,0.2,0.2,0.4,0.4,0.4l4.2,0h0
	c0.2,0,0.4-0.2,0.4-0.4c0,0,0,0,0,0c-0.2-3.7-0.3-7.4-0.4-11.1c0-0.2,0.1-0.4,0.2-0.5c19.8-15,35.4-32.5,42.8-48l-0.2-0.1
	c-9.2,15.3-23.5,30.1-42.7,43.8c-0.1,0.1-0.3,0-0.3-0.2c-0.7-23.5-0.7-42.8,0-59.2c0.1-2.2,0.1-4.5,0.2-7.1c0-0.3,0.2-0.5,0.4-0.6
	c8.4-4.7,16.2-10.9,23.6-18.9l-0.2-0.2c-8.2,7.2-15.8,12.5-23.4,16.2c-0.1,0-0.2,0-0.3,0c0,0-0.1-0.1-0.1-0.2
	c0.5-29-0.2-62.8-1.6-78.7l-0.2,0c0.1,17.1-0.1,34.2-0.6,51.3c0,0.1-0.1,0.1-0.2,0.1c0,0-0.1,0-0.1,0c-7-7.4-13.4-15.6-19-24.4
	l-0.2,0.1c4.7,9,10.9,18.1,19,27.9c0.3,0.3,0.4,0.7,0.4,1.1c-0.4,11-0.9,21.9-1.6,32.8c-0.2,3.7-0.3,7.5-0.5,12.2
	c0,0.2-0.2,0.2-0.3,0.1c-8.9-6.3-17.1-15-23.7-25.1l-0.2,0.1c5.9,11,13.8,20.3,23.5,27.8c0.3,0.3,0.5,0.7,0.5,1.1
	c-0.4,12.8-0.5,25.5-0.3,38.3c0,0,0,0.1,0,0.1c0,0-0.1,0-0.1,0c-17.5-10.7-32-24.6-43.2-41.2l-0.2,0.1
	C284.7,240,300.5,256.5,318.1,267.7L318.1,267.7z M191.6,314c0.1,0,0.1,0,0.2,0l2.8-1.3c0.1,0,0.2-0.1,0.2-0.2c0-0.1,0-0.2-0.1-0.3
	c-1-1.1-2.1-2.2-3.1-3.2c-0.2-0.2-0.3-0.5-0.4-0.9c-0.2-11.1-3.9-20.9-11-29.2l-0.2,0.1c5.4,8.1,7.9,16.6,7.9,26.2c0,0,0,0,0,0
	c-6.8-6.8-14.2-13.7-22-20.6c-0.2-0.2-0.4-0.5-0.3-0.9c0.7-8.2-0.7-15.9-4.1-22.9l-0.2,0.1c2.4,6.8,3,13.7,1.8,21l-0.1,0
	c-8.6-7.9-18.2-17.4-29.1-28.8l-0.2,0.2c9.2,11,20.1,22.6,33.3,35.4c2.1,2,4.2,4,6.3,6.1c-1.3,0.1-2.6,0.1-3.9,0.1
	c-9.1,0-18.2-2.3-28-6.9l-0.1,0.2c10.3,6.3,21.2,9.4,33.3,9.4c0.4,0,0.8,0,1.2,0c0.2,0,0.4,0.1,0.5,0.2c4.4,4.5,9.3,9.7,15.1,16
	C191.4,313.9,191.5,314,191.6,314L191.6,314z M477.2,285.1c10-10.1,19.5-20.4,28.2-30.6l-0.2-0.2c-10.3,10.4-20.8,20.6-32.1,31.3
	c0,0,0,0-0.1,0c0,0-0.1,0-0.1-0.1c-1.1-7.2-0.8-15,0.7-22.7l-0.2-0.1c-2.7,7.4-3.7,15.5-3,24.6c0,0.3-0.1,0.7-0.4,0.9
	c-8.6,7.6-16.6,15.4-24,23c-0.1,0.1-0.1,0.3,0,0.5c0,0,0,0,0.1,0.1l2.9,1.5c0.2,0.1,0.4,0.1,0.5-0.1c3-3.3,6.1-6.6,9.2-9.8
	c0.3-0.3,0.6-0.4,1-0.4c12.1-0.1,22.6-3,31.9-8.7l-0.1-0.2c-9.1,4-17.2,5.9-25.5,5.9c-1.2,0-2.4,0-3.6-0.1c0,0-0.1,0-0.1-0.1
	c0,0,0-0.1,0-0.1C467.3,294.7,472.2,289.9,477.2,285.1L477.2,285.1z M331.7,488.8c-8.6,0-16.7,2.4-20.7,8.2c0,0.1-0.1,0.1-0.2,0
	c-2.6-1.7-11.1-6.8-21-6.8c-5.3,0-11.2,2.6-17,5.9c-0.1,0-0.2,0.1-0.2,0c-15.6-2.3-30.6,0.7-45.3,6.4c15.3-3.9,29.7-6.3,41.2-4.1
	c0.1,0,0.1,0.1,0,0.1c-6.8,4.1-13.6,8.7-19.6,10.7c12.4-1.4,28.6-15.6,41.2-15.6c8.4,0,16.8,5.2,19,6.7c0.1,0,0.1,0.1,0.1,0.2
	c-0.6,2-0.9,4.2-0.6,6.8c4.1-11.3,12.4-13.9,23.8-13.9c8.7,0,17.5,3.1,27.7,5.4c0.1,0,0.2,0.1,0.3,0.1c6.3,5.4,17.7,10.9,23.2,11.8
	l2.4,0.4l-2.2-0.9c-4.7-1.8-13-6-17.2-10c-0.1,0,0-0.1,0.1-0.1c4.3,0.7,8.8,1.2,13.7,1.2c18.2,0,26.4-3.3,31.6-5.4
	c-5.5,1.2-10.7,2.8-29,2.8C366.2,498.9,345.3,488.8,331.7,488.8L331.7,488.8z M204.7,337.6c3.1-1.6,6.2-3.1,9.3-4.6l-3.6-7
	c-9.1,4.4-18,9-26.8,13.9l3.6,7c3-1.7,6-3.3,9.1-4.9l0.6-0.3l18.1,34.9c2.4-1.3,4.9-2.5,7.3-3.8l-18.1-34.9L204.7,337.6L204.7,337.6
	z M241.3,363.8c1,0,2-0.2,3-0.5c3.6-1.3,7.3-2.5,10.9-3.7c2.3-0.7,4.1-2.3,5.2-4.4c1-2.1,1.2-4.5,0.4-6.7l-9.4-27.7
	c-1.2-3.7-4.8-6.2-8.7-6.2c-0.9,0-1.9,0.1-2.7,0.4c-3.7,1.2-7.3,2.4-10.9,3.7c-4.7,1.6-7.1,6.8-5.5,11.5l9.4,27.7
	C234.2,361.4,237.5,363.8,241.3,363.8L241.3,363.8z M234.6,325c1.7-0.6,3.4-1.2,5.1-1.7c1.9-0.6,3.9,0.4,4.5,2.3l7.8,23
	c0.3,0.9,0.2,1.9-0.2,2.7c-0.4,0.8-1.2,1.5-2.1,1.8c-1.7,0.6-3.4,1.1-5,1.7c-0.4,0.1-0.8,0.2-1.2,0.2h0c-1.5,0-2.9-1-3.3-2.4
	l-7.8-23C231.7,327.7,232.7,325.7,234.6,325z M327.8,349.5c5.1,0,8.9-3.8,8.9-8.7v-29.3c0-5-4-9.1-8.9-9.1c-3.8,0-7.7,0-11.5,0
	c-4.9,0.1-8.9,4.2-8.9,9.1v29.3c0,4.9,3.9,8.7,8.8,8.7C317.1,349.5,321.5,349.4,327.8,349.5L327.8,349.5z M315.8,313.8
	c0-2,1.6-3.6,3.6-3.6c1.8,0,3.6,0,5.3,0c2,0,3.6,1.6,3.6,3.6v24.3c0,2-1.6,3.5-3.5,3.5c-1.8,0-3.6,0-5.3,0c-2,0-3.6-1.6-3.6-3.5
	V313.8z M313.7,461.2h12.6l2,7.7h8.3l-11.1-41h-11.1l-11.1,41h8.3L313.7,461.2L313.7,461.2z M320,436.4l4.4,17.1h-8.7L320,436.4z
	 M341.6,395v-12.8c0-4.5-3.6-8.1-8.1-8.1h-17.7v41h8v-12h9.7C338,403.1,341.6,399.5,341.6,395L341.6,395z M333.6,392.9
	c0,1.4-1.1,2.5-2.5,2.5h-7.3v-13.6h7.3c1.4,0,2.5,1.1,2.5,2.5V392.9z M233.3,427.9v41h24v-7.7h-15.9v-33.3H233.3z M263.8,374.1h-6.4
	l-8.9,20.6l-8.9-20.6h-6.4v41h8v-18.9l7.3,16.4l7.3-16.4v18.9h8V374.1z M280.4,353.3l-2.3-14l0.6-0.1c1.1-0.2,2.3-0.4,3.4-0.6
	l0.4-0.1l0.2,0.3c3,4.2,5.9,8.4,8.9,12.6c2.7-0.4,5.4-0.8,8-1.1c-2.9-4.2-5.9-8.3-8.8-12.5l-0.4-0.6l0.7-0.3
	c3.7-1.6,5.9-5.5,5.2-9.4l-2.4-14.9c-0.7-4.4-4.6-7.7-9-7.7c-0.4,0-0.9,0-1.3,0.1c-6.3,1-12.6,2-18.9,3.2l7.5,46.5
	C275,354.3,277.7,353.8,280.4,353.3L280.4,353.3z M274.7,314.4c2.5-0.4,4.9-0.8,7.4-1.2c1.9-0.3,3.8,1.1,4.1,3l1.6,10
	c0.2,0.9-0.1,1.9-0.6,2.6c-0.6,0.8-1.4,1.3-2.3,1.4c-2.5,0.4-4.9,0.8-7.4,1.2l-0.6,0.1l-2.8-17.1L274.7,314.4z M297.1,415.1h8.3
	l-10.1-41h-10.9l-10.1,41h8.3l1.7-7.7h11.1L297.1,415.1L297.1,415.1z M286,399.7l3.8-17.1l3.8,17.1H286L286,399.7z M372.2,435.6
	v-7.7h-25.7v41h8.1v-16.6h12.5v-7.7h-12.5v-8.9H372.2z M352.9,303.9l-7.9,46.5c2.7,0.4,5.4,0.8,8.2,1.2l4.5-26.7l0.8,2.3
	c3.1,8.9,6.1,17.9,9.1,26.9c2.1,0.4,4.3,0.8,6.4,1.2l7.9-46.5c-2.7-0.5-5.4-1.1-8.1-1.6l-4.5,26.7l-0.8-2.3c-3-8.9-6-17.9-9.1-26.8
	C357.2,304.5,355,304.2,352.9,303.9L352.9,303.9z M391,468.9h11.5c4.5,0,8.2-3.6,8.2-8.1v-5.9c0-3-1.2-5.8-3.9-7.2
	c0,0-14.4-6.4-14.6-6.5c-0.7-0.4-1.3-1.3-1.3-2.2v-0.9c0-1.4,1.1-2.5,2.5-2.5h6.7c1.4,0,2.5,1.1,2.5,2.5v1.7h8.1V436
	c0-4.5-3.7-8.1-8.2-8.1H391c-4.5,0-8.2,3.6-8.2,8.1v4.2c0,3,1.2,5.8,3.9,7.2c0,0,14.4,6.4,14.6,6.5c0.7,0.4,1.3,1.3,1.3,2.2v2.6
	c0,1.4-1.1,2.5-2.5,2.5h-6.7c-1.4,0-2.5-1.1-2.5-2.5v-1.7h-8.1v3.8C382.8,465.2,386.5,468.9,391,468.9L391,468.9z M410.7,407.4
	h-15.6v-8.9h10.6v-7.7h-10.6v-8.9h15.6v-7.7h-23.7v41h23.7L410.7,407.4z M376.7,407.4h-14.8v-33.3h-8v41h22.9L376.7,407.4z
	 M397.6,362.5l12.5-37.2l0.6,0.2c3.3,1.1,6.5,2.3,9.7,3.5l2.5-7.4c-9.4-3.5-19-6.7-28.6-9.6l-2.5,7.4c3.3,1,6.6,2,9.9,3.1l0.6,0.2
	l-12.5,37.2C392.4,360.7,395,361.6,397.6,362.5L397.6,362.5z M293.7,435.6v-7.7h-25.7v41h25.7v-7.7h-17.6v-8.9h12.5v-7.7h-12.5v-8.9
	H293.7z M452,335.4c-3.4-1.8-6.8-3.6-10.2-5.3c-1.2-0.6-2.6-0.9-4-0.9c-3.4,0-6.6,1.9-8.2,5l-13.4,26c-1.1,2.1-1.3,4.5-0.6,6.7
	c0.7,2.3,2.3,4.1,4.5,5.2c3.4,1.7,6.9,3.5,10.3,5.3c1.3,0.7,2.7,1.1,4.2,1.1c3.3,0,6.2-1.8,7.7-4.7l13.4-26
	C458.1,343.2,456.4,337.7,452,335.4L452,335.4z M447.2,345.7l-11.2,21.6c-0.6,1.2-1.8,1.9-3.1,1.9c-0.6,0-1.1-0.1-1.6-0.4
	c-1.6-0.8-3.2-1.6-4.7-2.4c-1.7-0.9-2.4-3-1.6-4.8c0,0,0,0,0,0l11.2-21.6c0.9-1.8,3-2.4,4.8-1.6c1.6,0.8,3.2,1.6,4.7,2.5
	C447.4,341.8,448.1,344,447.2,345.7z"/>
</svg>
