<svg width="3757" height="3102" viewBox="0 0 3757 3102" fill="none" xmlns="http://www.w3.org/2000/svg">
<path fill-rule="evenodd" clip-rule="evenodd" d="M1878.5 269.3L2024.5 850.1H1732.5L1878.5 269.3Z" fill="#131414"/>
<path fill-rule="evenodd" clip-rule="evenodd" d="M1703.3 927.3H2052.6V1185.9H2072.4V1231.8H1684.5V1185.9H1703.3V927.3ZM1878.5 969C1926.5 969 1966.1 1008.6 1966.1 1057.6C1966.1 1105.6 1926.5 1145.2 1878.5 1145.2C1829.5 1145.2 1790.9 1105.6 1790.9 1057.6C1790.9 1008.6 1829.5 969 1878.5 969ZM1704.4 900.2H2052.7V864.7H1704.4V900.2Z" fill="#131414"/>
<path fill-rule="evenodd" clip-rule="evenodd" d="M68.3 1994C90.2 1994 112.1 1994 132.9 1994C154.8 1994 176.7 1994 197.6 1994C203.9 2011.7 211.2 2031.5 219.5 2056.6C231 2087.9 245.6 2129.6 264.3 2183.8C220.5 2183.8 176.7 2183.8 132.9 2183.8C89.1 2183.8 45.3 2183.8 2.60001 2183.8C21.4 2129.6 36 2087.9 46.4 2056.6C55.8 2031.6 63.1 2011.7 68.3 1994Z" fill="#131414"/>
<path d="M266.4 2208.8H0.5V2269.3H266.4V2208.8Z" fill="#131414"/>
<path fill-rule="evenodd" clip-rule="evenodd" d="M16.0996 2319.4H250.7V3101.5H16.0996V2319.4ZM143.3 2557.1C143.3 2551.9 139.2 2547.7 132.9 2547.7C127.7 2547.7 123.5 2551.9 123.5 2557.1V2610.3H143.3V2557.1ZM208 2557.1C208 2551.9 203.8 2547.7 198.6 2547.7C192.4 2547.7 188.2 2551.9 188.2 2557.1V2610.3H208V2557.1ZM78.7004 2557.1C78.7004 2551.9 73.5004 2547.7 68.3004 2547.7C63.1004 2547.7 58.9004 2551.9 58.9004 2557.1V2610.3H78.7004V2557.1ZM143.3 2739.6C143.3 2734.4 139.2 2730.2 132.9 2730.2C127.7 2730.2 123.5 2734.4 123.5 2739.6V2792.8H143.3V2739.6ZM208 2739.6C208 2734.4 203.8 2730.2 198.6 2730.2C192.4 2730.2 188.2 2734.4 188.2 2739.6V2792.8H208V2739.6ZM78.7004 2739.6C78.7004 2734.4 73.5004 2730.2 68.3004 2730.2C63.1004 2730.2 58.9004 2734.4 58.9004 2739.6V2792.8H78.7004V2739.6ZM143.3 2923.1C143.3 2916.9 139.2 2912.7 132.9 2912.7C127.7 2912.7 123.5 2916.9 123.5 2923.1V2975.2H143.3V2923.1ZM208 2923.1C208 2916.9 203.8 2912.7 198.6 2912.7C192.4 2912.7 188.2 2916.9 188.2 2923.1V2975.2H208V2923.1ZM78.7004 2923.1C78.7004 2916.9 73.5004 2912.7 68.3004 2912.7C63.1004 2912.7 58.9004 2916.9 58.9004 2923.1V2975.2H78.7004V2923.1ZM143.3 2374.6C143.3 2369.4 139.2 2364.2 132.9 2364.2C127.7 2364.2 123.5 2369.4 123.5 2374.6V2426.7H143.3V2374.6ZM208 2374.6C208 2369.4 203.8 2364.2 198.6 2364.2C192.4 2364.2 188.2 2369.4 188.2 2374.6V2426.7H208V2374.6ZM78.7004 2374.6C78.7004 2369.4 73.5004 2364.2 68.3004 2364.2C63.1004 2364.2 58.9004 2369.4 58.9004 2374.6V2426.7H78.7004V2374.6Z" fill="#131414"/>
<path fill-rule="evenodd" clip-rule="evenodd" d="M271.6 2352.7H874.3V2492.4H271.6V2352.7ZM458.3 2397.6C464.6 2397.6 469.8 2402.8 469.8 2409.1V2447.7H446.9V2409.1C446.8 2402.8 452 2397.6 458.3 2397.6ZM577.1 2397.6C583.4 2397.6 588.6 2402.8 588.6 2409.1V2447.7H565.7V2409.1C565.7 2402.8 570.9 2397.6 577.1 2397.6ZM695 2397.6C701.3 2397.6 706.5 2402.8 706.5 2409.1V2447.7H683.6V2409.1C683.5 2402.8 688.7 2397.6 695 2397.6ZM813.8 2397.6C820.1 2397.6 825.3 2402.8 825.3 2409.1V2447.7H802.4V2409C802.4 2402.8 807.6 2397.6 813.8 2397.6ZM340.4 2397.6C346.7 2397.6 351.9 2402.8 351.9 2409.1V2447.7H329V2409C329 2402.8 334.2 2397.6 340.4 2397.6Z" fill="#131414"/>
<path fill-rule="evenodd" clip-rule="evenodd" d="M1151.7 2352.7H2605.3V2492.4H1151.7V2352.7ZM1293.5 2397.6C1299.8 2397.6 1305 2402.8 1305 2409.1V2447.7H1282.1V2409.1C1282 2402.8 1287.3 2397.6 1293.5 2397.6ZM1411.3 2397.6C1417.6 2397.6 1422.8 2402.8 1422.8 2409.1V2447.7H1399.9V2409.1C1399.9 2402.8 1405.1 2397.6 1411.3 2397.6ZM1530.2 2397.6C1536.5 2397.6 1541.7 2402.8 1541.7 2409.1V2447.7H1518.8V2409.1C1518.8 2402.8 1524 2397.6 1530.2 2397.6ZM1648 2397.6C1654.3 2397.6 1659.5 2402.8 1659.5 2409.1V2447.7H1636.6V2409C1636.6 2402.8 1641.8 2397.6 1648 2397.6ZM1174.6 2397.6C1180.9 2397.6 1186.1 2402.8 1186.1 2409.1V2447.7H1163.2V2409C1163.2 2402.8 1168.4 2397.6 1174.6 2397.6ZM2447.8 2409.1C2447.8 2402.8 2453 2397.6 2459.3 2397.6C2465.6 2397.6 2470.8 2402.8 2470.7 2409.1V2447.7H2447.8V2409.1ZM2330 2409.1C2330 2402.8 2335.2 2397.6 2341.5 2397.6C2347.7 2397.6 2353 2402.8 2352.9 2409.1V2447.7H2330V2409.1ZM2211.1 2409.1C2211.1 2402.8 2216.3 2397.6 2222.6 2397.6C2228.9 2397.6 2234.1 2402.8 2234 2409.1V2447.7H2211.1V2409.1ZM2092.2 2409.1C2092.2 2402.8 2097.4 2397.6 2103.7 2397.6C2111 2397.6 2115.2 2402.8 2115.1 2409V2447.7H2092.2V2409.1ZM2566.7 2409.1C2566.7 2402.8 2571.9 2397.6 2578.2 2397.6C2584.4 2397.6 2589.7 2402.8 2589.6 2409V2447.7H2566.7V2409.1Z" fill="#131414"/>
<path fill-rule="evenodd" clip-rule="evenodd" d="M2882.7 2352.7H3485.4V2492.4H2882.7V2352.7ZM3283.1 2409.1C3283.1 2402.8 3288.3 2397.6 3294.6 2397.6C3300.8 2397.6 3306 2402.8 3306 2409.1V2447.7H3283.1V2409.1ZM3164.2 2409.1C3164.2 2402.8 3169.4 2397.6 3175.7 2397.6C3181.9 2397.6 3187.2 2402.8 3187.1 2409.1V2447.7H3164.2V2409.1ZM3045.3 2409.1C3045.3 2402.8 3050.5 2397.6 3056.8 2397.6C3064.1 2397.6 3068.3 2402.8 3068.2 2409.1V2447.7H3045.3V2409.1ZM2927.5 2409.1C2927.5 2402.8 2932.7 2397.6 2939 2397.6C2945.2 2397.6 2950.4 2402.8 2950.4 2409V2447.7H2927.5V2409.1ZM3400.9 2409.1C3400.9 2402.8 3406.1 2397.6 3412.4 2397.6C3418.6 2397.6 3423.9 2402.8 3423.8 2409V2447.7H3400.9V2409.1Z" fill="#131414"/>
<path fill-rule="evenodd" clip-rule="evenodd" d="M3558.4 1994C3580.3 1994 3602.2 1994 3623.1 1994C3645 1994 3666.9 1994 3687.8 1994C3694.1 2011.7 3701.3 2031.5 3709.7 2056.6C3721.2 2087.9 3735.8 2129.6 3754.5 2183.8C3710.7 2183.8 3666.9 2183.8 3623.1 2183.8C3579.3 2183.8 3535.5 2183.8 3492.8 2183.8C3511.6 2129.6 3526.2 2087.9 3536.6 2056.6C3545.9 2031.6 3553.2 2011.7 3558.4 1994Z" fill="#131414"/>
<path d="M3756.5 2208.8H3490.6V2269.3H3756.5V2208.8Z" fill="#131414"/>
<path fill-rule="evenodd" clip-rule="evenodd" d="M948.4 1994C969.3 1994 991.2 1994 1013.1 1994C1034 1994 1055.9 1994 1077.8 1994C1083 2011.7 1090.3 2031.5 1099.7 2056.6C1110.1 2087.9 1124.7 2129.6 1144.5 2183.8C1100.7 2183.8 1056.9 2183.8 1013.1 2183.8C969.3 2183.8 925.5 2183.8 881.7 2183.8C900.5 2129.6 915.1 2087.9 926.5 2056.6C934.8 2031.6 942.1 2011.7 948.4 1994Z" fill="#131414"/>
<path d="M1145.5 2208.8H880.6V2269.3H1145.5V2208.8Z" fill="#131414"/>
<path fill-rule="evenodd" clip-rule="evenodd" d="M895.199 2319.4H1130.9V3101.5H895.199V2319.4ZM1022.4 2557.1C1022.4 2551.9 1018.2 2547.7 1013 2547.7C1007.8 2547.7 1002.6 2551.9 1002.6 2557.1V2610.3H1022.4V2557.1ZM1088.1 2557.1C1088.1 2551.9 1082.9 2547.7 1077.7 2547.7C1072.5 2547.7 1067.2 2551.9 1067.2 2557.1V2610.3H1088.1V2557.1ZM957.8 2557.1C957.8 2551.9 953.6 2547.7 948.4 2547.7C942.1 2547.7 937.9 2551.9 938 2557.1V2610.3H957.8V2557.1ZM1022.4 2739.6C1022.4 2734.4 1018.2 2730.2 1013 2730.2C1007.8 2730.2 1002.6 2734.4 1002.6 2739.6V2792.8H1022.4V2739.6ZM1088.1 2739.6C1088.1 2734.4 1082.9 2730.2 1077.7 2730.2C1072.5 2730.2 1067.2 2734.4 1067.2 2739.6V2792.8H1088.1V2739.6ZM957.8 2739.6C957.8 2734.4 953.6 2730.2 948.4 2730.2C942.1 2730.2 937.9 2734.4 938 2739.6V2792.8H957.8V2739.6ZM1022.4 2923.1C1022.4 2916.9 1018.2 2912.7 1013 2912.7C1007.8 2912.7 1002.6 2916.9 1002.6 2923.1V2975.2H1022.4V2923.1ZM1088.1 2923.1C1088.1 2916.9 1082.9 2912.7 1077.7 2912.7C1072.5 2912.7 1067.2 2916.9 1067.2 2923.1V2975.2H1088.1V2923.1ZM957.8 2923.1C957.8 2916.9 953.6 2912.7 948.4 2912.7C942.1 2912.7 937.9 2916.9 938 2923.1V2975.2H957.8V2923.1ZM1022.4 2374.6C1022.4 2369.4 1018.2 2364.2 1013 2364.2C1007.8 2364.2 1002.6 2369.4 1002.6 2374.6V2426.7H1022.4V2374.6ZM1088.1 2374.6C1088.1 2369.4 1082.9 2364.2 1077.7 2364.2C1072.5 2364.2 1067.2 2369.4 1067.2 2374.6V2426.7H1088.1V2374.6ZM957.8 2374.6C957.8 2369.4 953.6 2364.2 948.4 2364.2C942.1 2364.2 937.9 2369.4 938 2374.6V2426.7H957.8V2374.6Z" fill="#131414"/>
<path fill-rule="evenodd" clip-rule="evenodd" d="M1830.6 3101.4V2737.5C1830.6 2711.4 1852.5 2689.5 1878.6 2689.5C1904.7 2689.5 1926.6 2711.4 1926.6 2737.5V3101.4H1830.6Z" fill="#131414"/>
<path fill-rule="evenodd" clip-rule="evenodd" d="M2679.3 1994C2701.2 1994 2722.1 1994 2744 1994C2765.9 1994 2786.8 1994 2808.7 1994C2815 2011.7 2821.2 2031.5 2830.6 2056.6C2842.1 2087.9 2855.6 2129.6 2875.4 2183.8C2831.6 2183.8 2787.8 2183.8 2744 2183.8C2700.2 2183.8 2656.4 2183.8 2612.6 2183.8C2632.4 2129.6 2646 2087.9 2657.4 2056.6C2665.8 2031.6 2673.1 2011.7 2679.3 1994Z" fill="#131414"/>
<path d="M2876.5 2208.8H2611.6V2269.3H2876.5V2208.8Z" fill="#131414"/>
<path fill-rule="evenodd" clip-rule="evenodd" d="M3506.2 2319.4H3740.8V3101.5H3506.2V2319.4ZM3623 2547.7C3629.3 2547.7 3633.4 2551.9 3633.4 2557.1V2610.3H3613.6V2557.1C3613.6 2551.9 3617.8 2547.7 3623 2547.7ZM3688.7 2547.7C3693.9 2547.7 3698.1 2551.9 3698.1 2557.1V2610.3H3678.3V2557.1C3678.3 2551.9 3682.5 2547.7 3688.7 2547.7ZM3558.4 2547.7C3563.6 2547.7 3568.8 2551.9 3568.8 2557.1V2610.3H3549V2557.1C3549 2551.9 3553.2 2547.7 3558.4 2547.7ZM3623 2730.2C3629.3 2730.2 3633.4 2734.4 3633.4 2739.6V2792.8H3613.6V2739.6C3613.6 2734.4 3617.8 2730.2 3623 2730.2ZM3688.7 2730.2C3693.9 2730.2 3698.1 2734.4 3698.1 2739.6V2792.8H3678.3V2739.6C3678.3 2734.4 3682.5 2730.2 3688.7 2730.2ZM3558.4 2730.2C3563.6 2730.2 3568.8 2734.4 3568.8 2739.6V2792.8H3549V2739.6C3549 2734.4 3553.2 2730.2 3558.4 2730.2ZM3623 2912.7C3629.3 2912.7 3633.4 2916.9 3633.4 2923.1V2975.2H3613.6V2923.1C3613.6 2916.9 3617.8 2912.7 3623 2912.7ZM3688.7 2912.7C3693.9 2912.7 3698.1 2916.9 3698.1 2923.1V2975.2H3678.3V2923.1C3678.3 2916.9 3682.5 2912.7 3688.7 2912.7ZM3558.4 2912.7C3563.6 2912.7 3568.8 2916.9 3568.8 2923.1V2975.2H3549V2923.1C3549 2916.9 3553.2 2912.7 3558.4 2912.7ZM3623 2364.2C3629.3 2364.2 3633.4 2369.4 3633.4 2374.6V2426.7H3613.6V2374.6C3613.6 2369.4 3617.8 2364.2 3623 2364.2ZM3688.7 2364.2C3693.9 2364.2 3698.1 2369.4 3698.1 2374.6V2426.7H3678.3V2374.6C3678.3 2369.4 3682.5 2364.2 3688.7 2364.2ZM3558.4 2364.2C3563.6 2364.2 3568.8 2369.4 3568.8 2374.6V2426.7H3549V2374.6C3549 2369.4 3553.2 2364.2 3558.4 2364.2Z" fill="#131414"/>
<path fill-rule="evenodd" clip-rule="evenodd" d="M2626.2 2319.4H2861.9V3101.5H2626.2V2319.4ZM2753.4 2557.1C2753.4 2551.9 2749.2 2547.7 2744 2547.7C2738.8 2547.7 2733.6 2551.9 2733.6 2557.1V2610.3H2753.4V2557.1ZM2819 2557.1C2819 2551.9 2813.8 2547.7 2808.6 2547.7C2803.4 2547.7 2799.2 2551.9 2799.2 2557.1V2610.3H2819V2557.1ZM2688.7 2557.1C2688.7 2551.9 2684.5 2547.7 2679.3 2547.7C2673.1 2547.7 2668.9 2551.9 2668.9 2557.1V2610.3H2688.7V2557.1ZM2753.4 2739.6C2753.4 2734.4 2749.2 2730.2 2744 2730.2C2738.8 2730.2 2733.6 2734.4 2733.6 2739.6V2792.8H2753.4V2739.6ZM2819 2739.6C2819 2734.4 2813.8 2730.2 2808.6 2730.2C2803.4 2730.2 2799.2 2734.4 2799.2 2739.6V2792.8H2819V2739.6ZM2688.7 2739.6C2688.7 2734.4 2684.5 2730.2 2679.3 2730.2C2673.1 2730.2 2668.9 2734.4 2668.9 2739.6V2792.8H2688.7V2739.6ZM2753.4 2923.1C2753.4 2916.9 2749.2 2912.7 2744 2912.7C2738.8 2912.7 2733.6 2916.9 2733.6 2923.1V2975.2H2753.4V2923.1ZM2819 2923.1C2819 2916.9 2813.8 2912.7 2808.6 2912.7C2803.4 2912.7 2799.2 2916.9 2799.2 2923.1V2975.2H2819V2923.1ZM2688.7 2923.1C2688.7 2916.9 2684.5 2912.7 2679.3 2912.7C2673.1 2912.7 2668.9 2916.9 2668.9 2923.1V2975.2H2688.7V2923.1ZM2753.4 2374.6C2753.4 2369.4 2749.2 2364.2 2744 2364.2C2738.8 2364.2 2733.6 2369.4 2733.6 2374.6V2426.7H2753.4V2374.6ZM2819 2374.6C2819 2369.4 2813.8 2364.2 2808.6 2364.2C2803.4 2364.2 2799.2 2369.4 2799.2 2374.6V2426.7H2819V2374.6ZM2688.7 2374.6C2688.7 2369.4 2684.5 2364.2 2679.3 2364.2C2673.1 2364.2 2668.9 2369.4 2668.9 2374.6V2426.7H2688.7V2374.6Z" fill="#131414"/>
<path fill-rule="evenodd" clip-rule="evenodd" d="M1684.5 1258.9H2071.4V2518.5H2605.3V2689.5H2071.4V2713.5H2605.3V2897H2071.4V2921H2605.3V3101.4H1984.9V2625.9L1878.5 2518.5L1771.1 2625.9V3101.4H1151.7V2921H1684.5V2897H1151.7V2713.5H1684.5V2689.5H1151.7V2518.5H1684.5V1258.9ZM1895.2 1661.4C1895.2 1652 1887.9 1644.7 1878.5 1644.7C1869.1 1644.7 1861.8 1652 1861.8 1661.4V1749H1895.2V1661.4ZM2001.6 1661.4C2001.6 1652 1994.3 1644.7 1984.9 1644.7C1976.5 1644.7 1968.2 1652 1968.2 1661.4V1749H2001.6V1661.4ZM1787.8 1661.4C1787.8 1652 1780.5 1644.7 1771.1 1644.7C1762.8 1644.7 1755.5 1652 1755.5 1661.4V1749H1787.8V1661.4ZM1895.2 1962.8C1895.2 1953.4 1887.9 1946.1 1878.5 1946.1C1869.1 1946.1 1861.8 1953.3 1861.8 1962.8V2049.4H1895.2V1962.8ZM2001.6 1962.8C2001.6 1953.4 1994.3 1946.1 1984.9 1946.1C1976.5 1946.1 1968.2 1953.3 1968.2 1962.8V2049.4H2001.6V1962.8ZM1787.8 1962.8C1787.8 1953.4 1780.5 1946.1 1771.1 1946.1C1762.8 1946.1 1755.5 1953.3 1755.5 1962.8V2049.4H1787.8V1962.8ZM1895.2 2264.1C1895.2 2254.7 1887.9 2247.4 1878.5 2247.4C1869.1 2247.4 1861.8 2254.7 1861.8 2264.1V2350.7H1895.2V2264.1ZM2001.6 2264.1C2001.6 2254.7 1994.3 2247.4 1984.9 2247.4C1976.5 2247.4 1968.2 2254.7 1968.2 2264.1V2350.7H2001.6V2264.1ZM1787.8 2264.1C1787.8 2254.7 1780.5 2247.4 1771.1 2247.4C1762.8 2247.4 1755.5 2254.7 1755.5 2264.1V2350.7H1787.8V2264.1ZM1895.2 1360C1895.2 1351.6 1887.9 1343.3 1878.5 1343.3C1869.1 1343.3 1861.8 1351.7 1861.8 1360V1447.6H1895.2V1360ZM2001.6 1360C2001.6 1351.6 1994.3 1343.3 1984.9 1343.3C1976.5 1343.3 1968.2 1351.7 1968.2 1360V1447.6H2001.6V1360ZM1787.8 1360C1787.8 1351.6 1780.5 1343.3 1771.1 1343.3C1762.8 1343.3 1755.5 1351.7 1755.5 1360V1447.6H1787.8V1360Z" fill="#131414"/>
<path d="M271.6 2518.5H874.3V2689.5H271.6V2518.5Z" fill="#131414"/>
<path d="M271.6 2713.5H874.3V2897H271.6V2713.5Z" fill="#131414"/>
<path d="M271.6 2921H874.3V3101.4H271.6V2921Z" fill="#131414"/>
<path d="M2882.7 2518.5H3485.4V2689.5H2882.7V2518.5Z" fill="#131414"/>
<path d="M2882.7 2713.5H3485.4V2897H2882.7V2713.5Z" fill="#131414"/>
<path d="M2882.7 2921H3485.4V3101.4H2882.7V2921Z" fill="#131414"/>
<path d="M1887.9 7.59961H1868.1V309H1887.9V7.59961Z" fill="#131414"/>
<path d="M2115.49 104.754C2115.53 104.459 2115.56 104.179 2115.63 103.926C2116.43 100.729 2117.23 97.5029 2118.03 94.3194C2119.19 89.7194 2120.31 85.1051 2121.48 80.5048C2121.55 80.2804 2121.55 80.0279 2121.59 79.7755C2121.08 79.7334 2120.68 79.9578 2120.28 80.07C2114.27 81.8091 2108.24 83.6604 2102.26 85.5396C2102.08 85.6097 2101.87 85.6097 2101.6 85.6518C2100.23 82.2016 2098.88 78.7935 2097.47 75.2735C2096.6 76.1851 2095.91 77.0827 2095.18 77.9242C2094.42 78.7937 2093.69 79.6633 2092.94 80.5328C2092.18 81.4444 2091.41 82.342 2090.65 83.2115C2089.89 84.0811 2089.16 84.9506 2088.41 85.8622C2087.65 86.7317 2086.92 87.6013 2086.16 88.5129C2085.4 89.3824 2084.67 90.294 2083.95 91.1636C2083.19 92.0752 2082.42 92.9728 2081.66 93.8844C2080.9 94.7539 2080.24 95.6655 2079.26 96.6472C2079.37 95.2027 2079.56 93.9264 2079.65 92.6641C2079.77 91.3878 2079.95 90.1677 2080.09 88.8914C2080.23 87.6151 2080.38 86.3108 2080.52 85.0486C2080.66 83.7723 2080.78 82.4681 2080.92 81.2059C2081.06 79.9296 2081.21 78.6253 2081.35 77.3631C2081.49 76.0869 2081.65 74.8667 2081.79 73.5904C2081.93 72.3141 2082.08 71.0098 2082.18 69.7476C2082.32 68.4714 2082.47 67.1671 2082.61 65.9049C2082.75 64.6286 2082.91 63.3243 2083.05 62.0621C2083.19 60.8279 2083.34 59.5657 2083.44 58.2894C2083.55 57.0131 2083.8 55.7509 2083.8 54.4746C2083.41 54.4326 2083.15 54.657 2082.89 54.7972C2079.63 56.5363 2076.37 58.3174 2073.1 60.0564C2072.81 60.1966 2072.53 60.4491 2072.12 60.421C2071.98 60.1685 2071.83 59.9441 2071.69 59.6917C2068.42 53.7874 2065.19 47.9111 2061.93 42.0344C2060.99 40.3654 2060.07 38.6684 2059.16 36.9996C2059.02 36.7472 2058.87 36.4246 2058.59 36.2002C2057.1 39.2436 2055.68 42.2869 2054.27 45.2601C2052.82 48.3035 2051.41 51.3468 2049.95 54.3623C2048.53 57.3777 2047.12 60.3791 2045.63 63.3942C2045.38 63.3522 2045.19 63.3241 2044.97 63.254C2044.14 63.0015 2043.3 62.707 2042.47 62.4265C2039.54 61.4448 2036.57 60.463 2033.62 59.4953C2033.4 59.4252 2033.23 59.2429 2032.9 59.4532C2033.22 62.1039 2033.62 64.7547 2034.02 67.4335C2034.38 70.1122 2034.77 72.763 2035.14 75.4418C2035.5 78.1205 2035.9 80.7713 2036.26 83.4501C2036.63 86.1288 2036.99 88.7796 2037.43 91.4583C2038.08 95.7359 2038.48 98.8634 2038.41 99.4666C2038.11 99.3544 2037.93 99.144 2037.72 98.9617C2034.63 96.3111 2031.52 93.7026 2028.44 91.0238C2025.71 88.7097 2022.99 86.3395 2020.27 84.0255C2020.05 83.8432 2019.91 83.5908 2019.54 83.5908C2019.47 83.7731 2019.4 83.9554 2019.36 84.1377C2018.49 86.9006 2017.62 89.6916 2016.75 92.4404C2016.68 92.6929 2016.64 92.9874 2016.32 93.2398C2009.53 92.9453 2002.69 92.4825 1995.83 92.0057C1995.69 92.3282 1995.79 92.5807 1995.87 92.8331C1996.16 93.9271 1996.42 95.0491 1996.7 96.129C1998.18 102.118 1999.67 108.064 2001.2 114.039C2001.34 114.656 2001.49 115.315 2001.63 116.002C2000.88 116.577 2000.15 117.096 1999.39 117.629C1998.66 118.134 1997.97 118.681 1997.24 119.186C1996.52 119.733 1995.76 120.238 1995.03 120.785C1994.3 121.332 1993.54 121.794 1992.81 122.454C1995.6 124.74 1998.37 126.983 2001.12 129.241C2003.84 131.457 2006.58 133.659 2009.31 135.847C2012.07 138.063 2014.82 140.237 2017.58 142.41C2020.34 144.584 2023.09 146.73 2025.85 148.932C2025.53 150.124 2025.24 151.246 2024.94 152.41C2024.65 153.574 2024.33 154.696 2024.03 155.86C2023.74 156.982 2023.41 158.146 2023.12 159.31C2022.83 160.432 2022.46 161.554 2022.29 162.676C2022.36 162.718 2022.4 162.746 2022.4 162.746C2033.47 160.026 2044.56 157.165 2055.7 154.261C2056.27 154.514 2056.61 154.921 2056.5 155.608C2056.46 155.72 2056.5 155.86 2056.5 155.972C2056.39 158.651 2056.27 161.344 2056.2 164.023C2056.06 168.553 2055.91 173.083 2055.73 177.655C2055.55 183.096 2055.33 188.496 2055.15 193.938C2055.15 194.162 2055.19 194.415 2055.19 194.667C2056.06 194.709 2056.86 194.527 2057.69 194.443C2058.52 194.331 2059.36 194.331 2060.27 194.078V192.844V156.115C2060.27 154.74 2060.27 154.74 2061.32 153.801C2061.39 153.73 2061.46 153.688 2061.58 153.618C2063.1 153.688 2064.62 153.73 2066.15 153.801C2067.63 153.871 2069.16 153.941 2070.65 154.025C2072.18 154.095 2073.69 154.165 2075.25 154.249C2076.74 154.319 2078.27 154.39 2079.75 154.474C2081.28 154.544 2082.8 154.614 2084.32 154.726C2085.81 154.796 2087.34 154.908 2088.83 154.979C2090.35 155.049 2091.87 155.203 2093.51 155.203C2093.03 153.099 2092.57 151.136 2092.09 149.144C2091.62 147.111 2091.11 145.119 2090.68 143.058C2090.93 142.763 2091.18 142.511 2091.43 142.258C2099.05 134.643 2106.67 127.097 2114.25 119.664C2117.41 116.579 2120.52 113.577 2123.68 110.52C2123.86 110.38 2124.07 110.225 2124.11 109.903C2121.29 108.122 2118.39 106.451 2115.49 104.754Z" fill="#BE0000"/>
<path d="M2227.19 6.90118C2114.73 -17.3197 2002.27 31.9216 1889.81 7.70061C1888.8 7.47621 1888 8.09332 1888 9.11711V216.262C1888 217.272 1888.8 218.254 1889.81 218.478C2002.27 242.699 2114.73 193.458 2227.19 217.679C2228.2 217.903 2229 217.286 2229 216.262V9.11711C2229 8.10732 2228.16 7.12558 2227.19 6.90118ZM1973.33 18.037C2030.11 16.4382 2086.87 5.41477 2143.67 3.81599V207.346C2086.89 208.945 2030.13 219.968 1973.33 221.567V18.037Z" fill="#B50000"/>
</svg>
