<svg width="484" height="481" viewBox="0 0 484 481" fill="none" xmlns="http://www.w3.org/2000/svg">
<path d="M198.139 159.047C181.464 107.727 209.559 52.6351 260.85 35.9697C312.141 19.3043 367.252 47.3588 383.927 98.6807C400.592 149.969 372.506 205.093 321.216 221.758C269.926 238.423 214.804 210.337 198.139 159.047Z" fill="#3AA53B" stroke="white" stroke-width="8.74699"/>
<path fill-rule="evenodd" clip-rule="evenodd" d="M169.027 168.507C147.126 101.101 184.029 28.7418 251.394 6.85352C318.759 -15.0346 391.145 21.8115 413.048 89.2202C434.937 156.589 398.052 228.984 330.681 250.874C263.311 272.764 190.917 235.878 169.027 168.507ZM259.503 31.8102C205.916 49.2217 176.563 106.781 193.984 160.398C211.396 213.986 268.985 243.329 322.572 225.917C376.159 208.506 405.502 150.915 388.091 97.3291C370.669 43.7091 313.09 14.3986 259.503 31.8102Z" fill="#D1D1D1"/>
<path d="M295.911 174.261C339.566 142.543 400.643 152.239 432.343 195.869C464.042 239.5 454.391 300.583 410.734 332.302C367.106 364 306.001 354.323 274.302 310.693C242.603 267.063 252.281 205.96 295.911 174.261Z" fill="#FF9E2C" stroke="white" stroke-width="8.74699"/>
<path d="M384.807 347.413C386.882 346.593 388.815 345.391 390.586 343.775C388.393 304.05 369.005 265.602 334.297 240.385C312.636 224.647 287.908 216.178 263.025 214.516C259.996 214.75 258.734 216.956 258.936 220.647L262.619 223.257C285.852 224.843 308.932 232.768 329.156 247.461C361.361 270.86 379.477 306.427 381.793 343.265L384.807 347.413Z" fill="white"/>
<path d="M389.931 128.56C389.792 126.334 389.246 124.124 388.256 121.94C349.798 111.75 307.241 118.308 272.532 143.525C250.872 159.262 235.176 180.163 225.905 203.315C225.192 206.268 226.9 208.15 230.473 209.099L234.093 206.402C242.78 184.797 257.45 165.295 277.674 150.602C309.879 127.203 349.303 120.965 385.055 130.145L389.931 128.56Z" fill="white"/>
<path fill-rule="evenodd" clip-rule="evenodd" d="M277.919 149.494C335.257 107.835 415.479 120.571 457.113 177.876C498.747 235.179 486.073 315.409 428.731 357.07C371.424 398.706 291.174 385.997 249.537 328.688C207.9 271.38 220.61 191.131 277.919 149.494ZM435.884 193.3C402.765 147.716 338.952 137.586 293.343 170.723C247.759 203.842 237.648 267.68 270.766 313.264C303.885 358.848 367.725 368.958 413.307 335.841C458.919 302.702 469.002 238.884 435.884 193.3Z" fill="#D1D1D1"/>
<path d="M311.654 271.945C355.309 303.662 364.962 364.747 333.263 408.377C301.563 452.008 240.488 461.705 196.831 429.986C153.202 398.288 143.523 337.184 175.222 293.554C206.921 249.924 268.024 240.246 311.654 271.945Z" fill="#D82F2F" stroke="white" stroke-width="8.74699"/>
<path fill-rule="evenodd" clip-rule="evenodd" d="M329.652 247.178C386.991 288.837 399.667 369.068 358.033 426.373C316.4 483.676 236.18 496.415 178.839 454.754C121.532 413.118 108.82 332.868 150.457 275.56C192.094 218.251 272.343 205.541 329.652 247.178ZM336.804 410.948C369.923 365.365 359.838 301.545 314.228 268.407C268.644 235.289 204.805 245.4 171.687 290.984C138.568 336.568 148.68 400.407 194.263 433.525C239.875 466.664 303.685 456.532 336.804 410.948Z" fill="#D1D1D1"/>
<path d="M174.444 410.549C175.866 412.269 177.606 413.736 179.69 414.92C216.793 400.559 247.368 370.239 260.625 329.437C268.899 303.973 269.312 277.838 263.204 253.659C262.046 250.851 259.557 250.333 256.109 251.665L254.766 255.975C260.437 278.56 260.031 302.96 252.307 326.734C240.005 364.594 211.777 392.814 177.458 406.401L174.444 410.549Z" fill="white"/>
<path d="M223.616 317.106C206.942 368.426 151.83 396.483 100.539 379.817C49.2481 363.152 21.1524 308.062 37.8279 256.74C54.4925 205.452 109.615 177.364 160.905 194.029C212.195 210.694 240.281 265.816 223.616 317.106Z" fill="#2F4BD8" stroke="white" stroke-width="8.74699"/>
<path fill-rule="evenodd" clip-rule="evenodd" d="M252.736 326.567C230.835 393.973 158.448 430.822 91.0825 408.934C23.7177 387.045 -13.1866 314.688 8.71584 247.28C30.6052 179.911 102.999 143.023 170.37 164.913C190.57 171.477 204.195 201.533 218.151 215.681C226.72 224.368 237.805 215.25 243.556 225.886C259.676 255.696 264.033 291.8 252.736 326.567ZM99.1915 383.977C152.779 401.388 210.358 372.075 227.78 318.458C245.191 264.871 215.848 207.281 162.261 189.87C108.674 172.458 51.0835 201.803 33.6725 255.389C16.2503 309.009 45.6043 366.565 99.1915 383.977Z" fill="#D1D1D1"/>
<path d="M50.4465 228.163C49.2505 230.047 48.3927 232.155 47.9104 234.503C73.0338 265.352 111.318 285.062 154.22 285.062C180.994 285.062 205.978 277.378 227.086 264.097C229.398 262.128 229.123 259.601 226.79 256.733L222.276 256.788C202.549 269.16 179.218 276.315 154.22 276.315C114.412 276.315 78.8504 258.189 55.3232 229.747L50.4465 228.163Z" fill="white"/>
<path d="M153.462 247.331C99.5019 247.331 55.7877 203.587 55.7877 149.657C55.7877 95.7262 99.4994 51.9819 153.462 51.9819C167.92 51.9819 181.637 55.1233 193.975 60.7582C179.445 81.685 174.416 113.299 174.416 150.078C174.416 158.263 177.396 166.863 181.555 174.982C185.743 183.158 191.312 191.202 196.902 198.362C202.502 205.537 208.193 211.914 212.674 216.752C214.57 218.799 216.258 220.58 217.623 222.02C217.852 222.261 218.071 222.493 218.282 222.715C201.031 238.033 178.333 247.331 153.462 247.331Z" fill="#2AC2FF" stroke="white" stroke-width="8.74699"/>
<mask id="mask0_272_10592" style="mask-type:alpha" maskUnits="userSpaceOnUse" x="-58" y="-25" width="341" height="265">
<path d="M231.272 224.427L235.645 239.005L197.742 211.306L-57.3789 128.21L114.645 -24.8623L216.693 37.8244L191.91 69.8967L282.296 163.198L231.272 224.427Z" fill="#D9D9D9"/>
</mask>
<g mask="url(#mask0_272_10592)">
<path fill-rule="evenodd" clip-rule="evenodd" d="M277.919 149.492C335.257 107.833 415.479 120.569 457.113 177.874C498.747 235.178 486.073 315.407 428.731 357.068C371.424 398.704 291.174 385.995 249.537 328.687C207.9 271.378 220.61 191.129 277.919 149.492ZM435.884 193.298C402.765 147.714 338.952 137.584 293.343 170.721C247.759 203.84 237.648 267.679 270.766 313.262C303.885 358.846 367.725 368.956 413.307 335.839C458.919 302.7 469.002 238.882 435.884 193.298Z" fill="#D1D1D1"/>
</g>
<mask id="mask1_272_10592" style="mask-type:alpha" maskUnits="userSpaceOnUse" x="-55" y="-30" width="298" height="337">
<path d="M234.186 220.054L242.933 301.692L30.0894 306.066L-54.4648 123.837L117.559 -29.2354L219.607 33.4514L194.824 65.5237L234.186 220.054Z" fill="#D9D9D9"/>
</mask>
<g mask="url(#mask1_272_10592)">
<path fill-rule="evenodd" clip-rule="evenodd" d="M153.459 277.945C82.5842 277.945 25.1697 220.488 25.1697 149.656C25.1697 78.8248 82.5812 21.3672 153.459 21.3672C224.294 21.3672 281.748 78.8187 281.748 149.656C281.748 220.494 224.296 277.945 153.459 277.945ZM51.4107 149.656C51.4107 206.001 97.082 251.705 153.459 251.705C209.804 251.705 255.507 206.001 255.507 149.656C255.507 93.3115 209.802 47.6081 153.459 47.6081C97.0794 47.6081 51.4107 93.3115 51.4107 149.656Z" fill="#D1D1D1"/>
</g>
<mask id="mask2_272_10592" style="mask-type:alpha" maskUnits="userSpaceOnUse" x="117" y="-30" width="153" height="293">
<path d="M261.886 202.56L210.862 257.957L146.717 262.331L117.561 -29.2354L225.44 50.9454L269.175 125.295L261.886 202.56Z" fill="#D9D9D9"/>
</mask>
<g mask="url(#mask2_272_10592)">
<path fill-rule="evenodd" clip-rule="evenodd" d="M169.027 168.507C147.126 101.101 184.029 28.7418 251.394 6.85352C318.759 -15.0346 391.145 21.8115 413.048 89.2202C434.937 156.589 398.052 228.984 330.681 250.874C263.311 272.764 190.917 235.878 169.027 168.507ZM259.503 31.8102C205.916 49.2217 176.563 106.781 193.984 160.398C211.396 213.986 268.985 243.329 322.572 225.917C376.159 208.506 405.502 150.915 388.091 97.3291C370.669 43.7091 313.09 14.3986 259.503 31.8102Z" fill="#D1D1D1"/>
</g>
<path d="M182.752 54.9343C180.591 54.3789 178.321 54.2146 175.938 54.4816C154.362 87.9083 147.449 130.41 160.706 171.212C168.98 196.675 184.007 218.062 203.161 234.033C205.748 235.624 208.067 234.58 210.073 231.476L208.627 227.2C190.764 212.261 176.75 192.283 169.025 168.509C156.723 130.649 162.973 91.2265 182.752 60.062V54.9343Z" fill="white"/>
</svg>
