<svg width="167" height="165" viewBox="0 0 167 165" fill="none" xmlns="http://www.w3.org/2000/svg">
<path d="M66.8507 55.1137C60.8756 36.7242 70.943 16.9829 89.3221 11.0112C107.701 5.03945 127.449 15.0922 133.425 33.4826C139.396 51.861 129.332 71.6134 110.953 77.5851C92.5742 83.5568 72.8224 73.4928 66.8507 55.1137Z" fill="#3AA53B"/>
<path fill-rule="evenodd" clip-rule="evenodd" d="M58.2923 57.8949C50.7806 34.7763 63.4374 9.95876 86.542 2.45162C109.647 -5.05547 134.473 7.58185 141.985 30.7014C149.493 53.8071 136.842 78.6369 113.736 86.1446C90.6292 93.6523 65.8 81.0012 58.2923 57.8949ZM89.3232 11.0111C70.9441 16.9829 60.8767 36.7242 66.8518 55.1137C72.8235 73.4928 92.5753 83.5568 110.954 77.5851C129.333 71.6134 139.397 51.861 133.426 33.4825C127.45 15.0922 107.702 5.03941 89.3232 11.0111Z" fill="white"/>
<path d="M100.928 58.6547C116.571 47.2894 138.458 50.7637 149.817 66.3978C161.175 82.032 157.717 103.92 142.073 115.286C126.44 126.644 104.544 123.177 93.1853 107.543C81.8264 91.9086 85.2943 70.0136 100.928 58.6547Z" fill="#FF9E2C"/>
<path fill-rule="evenodd" clip-rule="evenodd" d="M95.6392 51.3736C115.305 37.0856 142.819 41.4539 157.099 61.1078C171.378 80.7617 167.031 108.278 147.364 122.567C127.709 136.847 100.186 132.488 85.905 112.833C71.6245 93.1775 75.9838 65.6541 95.6392 51.3736ZM149.817 66.3979C138.458 50.7637 116.572 47.2895 100.929 58.6548C85.2951 70.0137 81.8273 91.9087 93.1862 107.543C104.545 123.177 126.441 126.645 142.074 115.286C157.718 103.92 161.176 82.0321 149.817 66.3979Z" fill="white"/>
<path d="M119.475 143.691C132.294 126.047 128.391 101.344 110.736 88.5175C93.0917 75.6978 68.3825 79.6114 55.5628 97.2562C42.743 114.901 46.6571 139.611 64.3014 152.43C81.9566 165.257 106.656 161.335 119.475 143.691Z" fill="#D82F2F" stroke="white" stroke-width="9"/>
<path d="M78.442 109.324C72.4668 127.714 52.7184 137.768 34.3394 131.796C15.9603 125.824 5.89261 106.084 11.868 87.6932C17.8395 69.3147 37.5915 59.2501 55.9706 65.2218C74.3496 71.1936 84.4137 90.9454 78.442 109.324Z" fill="#2F4BD8"/>
<path fill-rule="evenodd" clip-rule="evenodd" d="M87.0025 112.105C79.4908 135.224 54.6638 147.862 31.5592 140.355C8.45478 132.848 -4.20249 108.031 3.3095 84.9119C10.817 61.8062 35.6463 49.1544 58.7527 56.6622C65.6811 58.9133 70.3539 69.2218 75.1406 74.0742C78.0797 77.0536 81.8813 73.9266 83.8538 77.5742C89.3827 87.7986 90.8768 100.181 87.0025 112.105ZM34.3404 131.796C52.7195 137.767 72.4679 127.714 78.443 109.324C84.4147 90.9452 74.3506 71.1934 55.9716 65.2217C37.5925 59.25 17.8405 69.3146 11.869 87.6931C5.89362 106.083 15.9613 125.824 34.3404 131.796Z" fill="white"/>
<path d="M52.9542 86.4297C33.6183 86.4297 17.9542 70.7546 17.9542 51.4297C17.9542 32.1048 33.6174 16.4297 52.9542 16.4297C58.7938 16.4297 64.3003 17.8611 69.1417 20.3922C63.6407 27.0742 61.6407 38.0892 61.6407 51.5742C61.6407 61.4405 76.1406 75.0742 77.2969 76.5742C70.997 82.6745 62.4128 86.4297 52.9542 86.4297Z" fill="#2AC2FF"/>
<mask id="mask0_269_10591" style="mask-type:alpha" maskUnits="userSpaceOnUse" x="-20" y="-9" width="118" height="92">
<path d="M79.6406 77.0742L81.1406 82.0742L68.1406 72.5742L-19.3594 44.0742L39.6406 -8.42578L74.6406 13.0742L66.1406 24.0742L97.1406 56.0742L79.6406 77.0742Z" fill="#D9D9D9"/>
</mask>
<g mask="url(#mask0_269_10591)">
<path fill-rule="evenodd" clip-rule="evenodd" d="M95.6392 51.3736C115.305 37.0856 142.819 41.4539 157.099 61.1078C171.378 80.7617 167.031 108.278 147.364 122.567C127.709 136.847 100.186 132.488 85.905 112.833C71.6245 93.1775 75.9838 65.6541 95.6392 51.3736ZM149.817 66.3979C138.458 50.7637 116.572 47.2895 100.929 58.6548C85.2951 70.0137 81.8273 91.9087 93.1862 107.543C104.545 123.177 126.441 126.645 142.074 115.286C157.718 103.92 161.176 82.0321 149.817 66.3979Z" fill="white"/>
</g>
<mask id="mask1_269_10591" style="mask-type:alpha" maskUnits="userSpaceOnUse" x="-19" y="-10" width="103" height="116">
<path d="M80.6406 75.5742L83.6406 103.574L10.6406 105.074L-18.3594 42.5742L40.6406 -9.92578L75.6406 11.5742L67.1406 22.5742L80.6406 75.5742Z" fill="#D9D9D9"/>
</mask>
<g mask="url(#mask1_269_10591)">
<path fill-rule="evenodd" clip-rule="evenodd" d="M52.9531 95.4297C28.6449 95.4297 8.95312 75.7233 8.95312 51.4297C8.95312 27.1362 28.6438 7.42968 52.9531 7.42969C77.2479 7.42969 96.9531 27.1341 96.9531 51.4297C96.9531 75.7251 77.2486 95.4297 52.9531 95.4297ZM17.9531 51.4297C17.9531 70.7546 33.6173 86.4297 52.9531 86.4297C72.278 86.4297 87.9531 70.7546 87.9531 51.4297C87.9531 32.1048 72.2774 16.4297 52.9531 16.4297C33.6164 16.4297 17.9531 32.1048 17.9531 51.4297Z" fill="white"/>
</g>
<mask id="mask2_269_10591" style="mask-type:alpha" maskUnits="userSpaceOnUse" x="40" y="-10" width="53" height="101">
<path d="M90.1406 69.5742L72.6406 88.5742L50.6406 90.0742L40.6406 -9.92578L77.6406 17.5742L92.6406 43.0742L90.1406 69.5742Z" fill="#D9D9D9"/>
</mask>
<g mask="url(#mask2_269_10591)">
<path fill-rule="evenodd" clip-rule="evenodd" d="M58.2923 57.8949C50.7806 34.7763 63.4374 9.95876 86.542 2.45162C109.647 -5.05547 134.473 7.58185 141.985 30.7014C149.493 53.8071 136.842 78.6369 113.736 86.1446C90.6292 93.6523 65.8 81.0012 58.2923 57.8949ZM89.3232 11.0111C70.9441 16.9829 60.8767 36.7242 66.8518 55.1137C72.8235 73.4928 92.5753 83.5568 110.954 77.5851C129.333 71.6134 139.397 51.861 133.426 33.4825C127.45 15.0922 107.702 5.03941 89.3232 11.0111Z" fill="white"/>
</g>
</svg>
