<svg width="162" height="157" viewBox="0 0 162 157" fill="none" xmlns="http://www.w3.org/2000/svg">
<circle cx="80" cy="83" r="67" fill="white"/>
<path d="M68.2937 3.6016C78.7346 -3.1414 92.6593 -0.139711 99.3985 10.2953C106.138 20.7304 103.146 34.6569 92.7047 41.4002C82.27 48.1391 68.3391 45.1415 61.5999 34.7064C54.8607 24.2714 57.8586 10.3408 68.2937 3.6016Z" fill="#2AC2FF"/>
<path d="M0.757513 71.2674C-2.42855 59.2555 4.72814 46.9416 16.7332 43.7574C28.7383 40.5731 41.0569 47.7207 44.2431 59.7331C47.4273 71.7378 40.2725 84.0588 28.2674 87.2431C16.2624 90.4274 3.94176 83.2725 0.757513 71.2674Z" fill="#3AA53B"/>
<path d="M44.2657 156.966C31.8546 156.284 22.353 145.67 23.0345 133.266C23.716 120.862 34.3226 111.353 46.7343 112.035C59.1381 112.716 68.6471 123.33 67.9655 135.734C67.284 148.138 56.6698 157.647 44.2657 156.966Z" fill="#FF9E2C"/>
<path d="M138.48 141.614C133.998 153.204 120.97 158.96 109.386 154.479C97.8026 149.999 92.0379 136.976 96.5208 125.385C101.001 113.802 114.031 108.039 125.615 112.52C137.199 117 142.961 130.03 138.48 141.614Z" fill="#D82F2F"/>
<path d="M153.703 47.0491C163.343 54.896 164.792 69.068 156.949 78.7028C149.107 88.3376 134.936 89.7962 125.295 81.9489C115.661 74.1066 114.206 59.93 122.049 50.2952C129.892 40.6604 144.068 39.2066 153.703 47.0491Z" fill="#2F4BD8"/>
<path d="M108.089 30.3542C108.823 27.9716 109.256 25.5016 109.375 23.0068C116.225 26.3288 122.427 30.7802 127.737 36.1191C125.446 37.0332 123.254 38.2402 121.22 39.7341C117.301 36.0503 112.887 32.8869 108.089 30.3542Z" fill="#A5A5A5"/>
<path d="M51.5698 30.6373C50.8 28.2322 50.3527 25.7668 50.2152 23.3008C43.2861 26.7465 37.036 31.3533 31.7197 36.8666C34.0783 37.7239 36.318 38.8765 38.3829 40.2921C42.3031 36.507 46.737 33.2505 51.5698 30.6373Z" fill="#A5A5A5"/>
<path d="M13.5986 93.2246C15.987 93.8997 18.4752 94.2786 21.0096 94.3304C22.0241 99.9024 23.8075 105.206 26.2458 110.128C24.2791 111.687 22.5123 113.492 20.9938 115.5C17.3032 108.698 14.7527 101.188 13.5986 93.2246Z" fill="#A5A5A5"/>
<path d="M69.2471 149.826C72.7781 150.399 76.4014 150.697 80.0942 150.697C84.3894 150.697 88.5904 150.294 92.6616 149.523C91.2353 147.458 90.0774 145.222 89.2143 142.873C86.2404 143.326 83.1948 143.561 80.0942 143.561C77.5589 143.561 75.0603 143.404 72.6076 143.099C71.7708 145.501 70.6351 147.758 69.2471 149.826Z" fill="#A5A5A5"/>
<path d="M139.996 113.976C138.434 112.051 136.619 110.31 134.576 108.809C136.844 103.935 138.476 98.7069 139.368 93.2298C141.858 93.176 144.335 92.8101 146.738 92.1387C145.741 99.9118 143.415 107.269 139.996 113.976Z" fill="#A5A5A5"/>
</svg>
